<?xml version="1.0" encoding="UTF-8"?>
<svg width="299.02pt" height="156.62pt" version="1.2" viewBox="0 0 299.02 156.62" xmlns="http://www.w3.org/2000/svg" xmlns:cc="http://creativecommons.org/ns#" xmlns:dc="http://purl.org/dc/elements/1.1/" xmlns:rdf="http://www.w3.org/1999/02/22-rdf-syntax-ns#">
 <metadata>
  <rdf:RDF>
   <cc:Work rdf:about="">
    <dc:format>image/svg+xml</dc:format>
    <dc:type rdf:resource="http://purl.org/dc/dcmitype/StillImage"/>
    <dc:title/>
   </cc:Work>
  </rdf:RDF>
 </metadata>
 <path d="m3.3906 130.62h115.89v-94.273h-115.89zm115.89 0h124.73v-44.184h-124.73z" fill="none" stroke="#000" stroke-miterlimit="10" stroke-width=".81145"/>
 <path d="m2.9023 0 2.8984 8.7031h-5.8008" fill-rule="evenodd"/>
 <path d="m3.3906 36.344v-27.641" fill="none" stroke="#000" stroke-miterlimit="10" stroke-width=".81145"/>
 <path d="m299.02 130.62-8.6992 2.9258v-5.8125" fill-rule="evenodd"/>
 <path d="m244.02 130.62h46.305" fill="none" stroke="#000" stroke-miterlimit="10" stroke-width=".81145"/>
 <g transform="matrix(1.4687 0 0 1.4687 -92.806 -46.259)">
  <g id="content" transform="matrix(.23286 0 0 -.23286 -40.75 225)" fill-rule="evenodd" stroke="#000" stroke-miterlimit="10.433" stroke-width="0" xml:space="preserve"><path d="m474.1 425.03-0.18 0.34-0.18 0.32-0.2 0.32-0.11 0.15-0.11 0.14-0.11 0.15-0.12 0.13-0.12 0.14-0.12 0.13-0.26 0.24-0.42 0.33-0.15 0.09-0.15 0.1-0.15 0.08-0.16 0.08-0.17 0.08-0.17 0.06-0.17 0.07-0.17 0.05-0.18 0.05-0.19 0.04-0.38 0.06-0.2 0.02-0.2 0.01h-0.21l0.05-1.09c3.23 0 3.93-4.08 3.93-4.37 0-0.32-0.09-0.61-0.14-0.86l-2.5-9.77c-0.25-0.89-0.25-0.98-1-1.84-2.18-2.74-4.23-3.53-5.62-3.53-2.49 0-3.19 2.73-3.19 4.68 0 2.49 1.59 8.61 2.74 10.91 1.54 2.94 3.79 4.78 5.78 4.78l-0.05 1.09c-5.83 0-12-7.31-12-14.59 0-4.69 2.73-7.97 6.62-7.97 0.99 0 3.49 0.21 6.47 3.74 0.41-2.1 2.14-3.74 4.53-3.74 1.75 0 2.9 1.14 3.69 2.74 0.85 1.79 1.5 4.84 1.5 4.93 0 0.5-0.45 0.5-0.59 0.5-0.5 0-0.55-0.2-0.7-0.9-0.85-3.24-1.75-6.17-3.79-6.17-1.34 0-1.5 1.29-1.5 2.29 0 1.1 0.1 1.49 0.64 3.69 0.57 2.09 0.66 2.59 1.11 4.48l1.79 6.97c0.35 1.39 0.35 1.5 0.35 1.69 0 0.86-0.6 1.36-1.45 1.36-1.19 0-1.94-1.11-2.09-2.2z"/><path d="m493.1 420.54v0.05l-0.01 0.06v0.05l-0.01 0.06-0.01 0.05-0.02 0.06-0.01 0.05-0.02 0.06-0.03 0.06-0.02 0.05-0.03 0.06-0.03 0.05-0.03 0.06-0.04 0.05-0.03 0.05-0.05 0.05-0.04 0.05-0.05 0.05-0.05 0.04-0.05 0.05-0.06 0.04-0.06 0.03-0.06 0.04-0.06 0.03-0.14 0.06-0.16 0.04-0.16 0.02-0.09 0.01h-0.09c-0.94 0-1.95-0.91-1.95-1.92 0-0.59 0.45-1.33 1.4-1.33 1 0 1.96 0.99 1.96 1.92z"/><path d="m485.99 402.84-0.06-0.17-0.05-0.17-0.03-0.08-0.02-0.09-0.03-0.08-0.06-0.27-0.02-0.1-0.01-0.09-0.02-0.1v-0.05l-0.01-0.05v-0.22c0-1.64 1.39-2.95 3.29-2.95 3.49 0 5.03 4.79 5.03 5.33 0 0.45-0.45 0.45-0.56 0.45-0.48 0-0.53-0.2-0.67-0.59-0.8-2.79-2.33-4.22-3.69-4.22-0.7 0-0.87 0.45-0.87 1.22 0 0.79 0.25 1.46 0.56 2.23 0.34 0.94 0.73 1.87 1.11 2.78 0.31 0.84 1.58 4.02 1.72 4.44 0.09 0.34 0.2 0.76 0.2 1.11 0 1.64-1.39 2.95-3.31 2.95-3.45 0-5.05-4.73-5.05-5.33 0-0.45 0.49-0.45 0.6-0.45 0.48 0 0.51 0.17 0.62 0.56 0.91 3 2.44 4.25 3.72 4.25 0.56 0 0.87-0.28 0.87-1.22 0-0.79-0.2-1.32-1.07-3.48z"/></g>
 </g>
 <g transform="matrix(1.4687 0 0 1.4687 -41.022 -104.83)">
  <g transform="matrix(.23286 0 0 -.23286 -40.75 225)" fill="none" fill-rule="evenodd" stroke="#000" stroke-miterlimit="10.433" xml:space="preserve"><path d="m457.57 418.86 0.09 0.26 0.1 0.26 0.1 0.24 0.11 0.25 0.11 0.23 0.24 0.44 0.12 0.21 0.26 0.4 0.13 0.19 0.14 0.18 0.28 0.34 0.29 0.32 0.3 0.29 0.31 0.27 0.31 0.24 0.32 0.22 0.32 0.21 0.32 0.18 0.31 0.16 0.32 0.15 0.31 0.13 0.3 0.11 0.3 0.1 0.29 0.08 0.28 0.07 0.27 0.06 0.25 0.05 0.24 0.04 0.22 0.03 0.21 0.02 0.19 0.02 0.16 0.01 0.14 0.01 0.12 0.01h0.16c7.51 0 8.06-8.72 8.06-12.66 0-3.05-0.25-3.89-0.59-4.89-1.1-3.63-2.6-9.41-2.6-10.7 0-0.55 0.25-0.91 0.66-0.91 0.64 0 1.05 1.11 1.59 3 1.14 4.19 1.64 7.02 1.85 8.56 0.09 0.66 0.18 1.3 0.39 1.96 1.59 4.92 4.78 12.34 6.78 16.28 0.34 0.59 0.94 1.7 0.94 1.89 0 0.5-0.49 0.5-0.6 0.5-0.14 0-0.45 0-0.59-0.35-2.59-4.73-4.58-9.71-6.58-14.75-0.05 1.55-0.09 5.33-2.05 10.18-1.18 3.03-3.18 5.46-6.62 5.46-6.22 0-9.72-7.56-9.72-9.1 0-0.5 0.45-0.5 0.95-0.5z" fill="#000" stroke-width="0"/></g>
 </g>
 <g transform="matrix(1.4687 0 0 1.4687 64.869 -79.187)">
  <g transform="matrix(.23286 0 0 -.23286 -40.75 225)" fill-rule="evenodd" stroke="#000" stroke-miterlimit="10.433" stroke-width="0" xml:space="preserve"><path d="m470.16 438.09v0.48l-0.01 0.04v0.15l-0.01 0.03-0.01 0.07v0.06l-0.02 0.05-0.01 0.05-0.02 0.05-0.04 0.08-0.02 0.03-0.06 0.06-0.04 0.03-0.08 0.04-0.03 0.01-0.02 0.01h-0.03l-0.02 0.01-0.03 0.01h-0.03l-0.03 0.01h-0.03l-0.04 0.01h-0.07l-0.03 0.01h-0.21l-0.05 0.01h-0.2c-3.09-3.19-7.47-3.19-9.06-3.19v-1.55c1 0 3.93 0 6.51 1.3v-25.81c0-1.8-0.14-2.39-4.62-2.39h-1.6v-1.55c1.75 0.16 6.08 0.16 8.07 0.16 2 0 6.32 0 8.07-0.16v1.55h-1.59c-4.48 0-4.64 0.54-4.64 2.39z"/><path d="m524.34 417.65h0.32l0.16 0.01h0.08l0.07 0.01h0.08l0.07 0.01 0.08 0.01 0.07 0.01 0.14 0.04 0.06 0.02 0.07 0.02 0.06 0.02 0.05 0.03 0.06 0.03 0.05 0.04 0.05 0.03 0.09 0.09 0.04 0.05 0.02 0.03 0.01 0.03 0.02 0.03 0.01 0.03 0.02 0.03 0.01 0.03 0.01 0.04 0.01 0.03 0.03 0.12v0.04l0.01 0.04v0.13c0 1-0.9 1-1.75 1h-26.95c-0.84 0-1.73 0-1.73-1s0.89-1 1.73-1z"/><path d="m543.36 418.86 0.1 0.26 0.09 0.26 0.11 0.24 0.11 0.25 0.11 0.23 0.11 0.22 0.12 0.22 0.13 0.21 0.12 0.2 0.14 0.2 0.13 0.19 0.14 0.18 0.28 0.34 0.29 0.32 0.3 0.29 0.31 0.27 0.31 0.24 0.32 0.22 0.31 0.21 0.32 0.18 0.32 0.16 0.32 0.15 0.31 0.13 0.3 0.11 0.3 0.1 0.29 0.08 0.28 0.07 0.27 0.06 0.25 0.05 0.24 0.04 0.22 0.03 0.21 0.02 0.18 0.02 0.17 0.01 0.14 0.01 0.12 0.01h0.15c7.52 0 8.07-8.72 8.07-12.66 0-3.05-0.25-3.89-0.6-4.89-1.09-3.63-2.59-9.41-2.59-10.7 0-0.55 0.25-0.91 0.66-0.91 0.64 0 1.04 1.11 1.59 3 1.14 4.19 1.64 7.02 1.84 8.56 0.1 0.66 0.19 1.3 0.4 1.96 1.59 4.92 4.78 12.34 6.78 16.28 0.34 0.59 0.93 1.7 0.93 1.89 0 0.5-0.48 0.5-0.59 0.5-0.14 0-0.45 0-0.59-0.35-2.6-4.73-4.58-9.71-6.58-14.75-0.05 1.55-0.1 5.33-2.05 10.18-1.19 3.03-3.19 5.46-6.62 5.46-6.22 0-9.72-7.56-9.72-9.1 0-0.5 0.45-0.5 0.95-0.5z"/></g>
 </g>
 <g transform="matrix(1.5225 0 0 1.5225 -.078399 -48.188)">
  <g transform="matrix(.23286 0 0 -.23286 -40.75 225)" fill-rule="evenodd" stroke="#000" stroke-miterlimit="10.433" stroke-width="0" xml:space="preserve"><path d="m476.22 439.43-0.07 0.11-0.07 0.1-0.08 0.11-0.07 0.1-0.08 0.1-0.09 0.1-0.08 0.09-0.19 0.19-0.09 0.08-0.1 0.09-0.3 0.24-0.22 0.14-0.12 0.07-0.11 0.07-0.12 0.06-0.12 0.05-0.13 0.06-0.12 0.05-0.13 0.04-0.14 0.04-0.13 0.04-0.28 0.06-0.15 0.02-0.14 0.02-0.15 0.01-0.16 0.01h-0.15v-0.97c2.44 0 3.11-2.64 3.11-3.03 0-0.14-0.08-0.39-0.11-0.48l-1.64-6.52c-0.24-0.98-1-1.67-1.77-2.34-0.31-0.27-1.72-1.39-3.22-1.39-1.28 0-2.53 0.9-2.53 3.37 0 1.86 1 5.69 1.82 7.08 1.59 2.8 3.37 3.31 4.34 3.31v0.97c-4.45 0-8.99-4.91-8.99-9.92 0-3.38 2.27-5.78 5.27-5.78 1.88 0 3.55 1.08 4.94 2.43 0.67-2.09 2.69-2.43 3.59-2.43 1.25 0 2.13 0.76 2.75 1.84 0.77 1.36 1.22 3.34 1.22 3.49 0 0.45-0.45 0.45-0.55 0.45-0.5 0-0.53-0.14-0.76-1.08-0.42-1.67-1.1-3.73-2.55-3.73-0.91 0-1.16 0.76-1.16 1.7 0 0.59 0.29 1.86 0.54 2.76 0.23 0.94 0.59 2.36 0.76 3.13l0.69 2.66c0.22 0.9 0.62 2.54 0.62 2.71 0 0.77-0.62 1.11-1.17 1.11-0.59 0-1.4-0.42-1.61-1.39z"/><path d="m492.98 436.62v0.06l-0.01 0.05v0.06l-0.03 0.15-0.06 0.15-0.02 0.04-0.03 0.05-0.02 0.04-0.06 0.08-0.04 0.04-0.03 0.04-0.04 0.03-0.04 0.04-0.12 0.09-0.1 0.04-0.05 0.03-0.05 0.01-0.05 0.02-0.05 0.01-0.06 0.02-0.05 0.01h-0.06l-0.06 0.01h-0.06c-0.69 0-1.52-0.67-1.52-1.49 0-0.7 0.55-1.08 1.06-1.08 0.83 0 1.55 0.76 1.55 1.5z"/><path d="m494.15 424.67v0.06l-0.01 0.02v0.02l-0.01 0.02v0.01l-0.01 0.01v0.01l-0.01 0.01v0.01l-0.03 0.03v0.01l-0.02 0.02h-0.01l-0.02 0.02-0.14 0.07h-0.03l-0.02 0.01h-0.02l-0.02 0.01h-0.1l-0.01 0.01h-0.05c-0.43 0-0.46-0.1-0.6-0.58-0.43-1.36-1.54-2.78-2.79-2.78-0.58 0-0.75 0.39-0.75 0.93 0 0.53 0.12 0.8 0.32 1.29 0.21 0.48 0.39 0.98 0.52 1.34 0.11 0.22 1.08 2.53 1.42 3.44 0.2 0.5 0.36 0.81 0.36 1.23 0 1.2-1.16 2.2-2.72 2.2-2.62 0-4.01-3.18-4.01-3.86 0-0.35 0.4-0.35 0.53-0.35 0.42 0 0.44 0.12 0.56 0.5 0.55 1.76 1.75 2.85 2.81 2.85 0.49 0 0.75-0.26 0.75-0.93 0-0.1 0-0.42-0.14-0.91-0.19-0.44-1.29-3.11-1.65-3.95-0.18-0.42-0.18-0.47-0.55-1.32-0.13-0.35-0.27-0.7-0.27-1.12 0-1.3 1.22-2.2 2.72-2.2 2.61 0 4 3.25 4 3.87z"/><path d="m515.1 434h10.66c0.45 0 1.28 0 1.28 0.84 0 0.86-0.8 0.86-1.28 0.86h-10.66v10.7c0 0.46 0 1.28-0.84 1.28-0.88 0-0.88-0.79-0.88-1.28v-10.7h-10.68c-0.46 0-1.3 0-1.3-0.83 0-0.87 0.8-0.87 1.3-0.87h10.68v-10.71c0-0.45 0-1.28 0.85-1.28 0.87 0 0.87 0.8 0.87 1.28z"/><path d="m550.69 455.93-0.29-0.29-0.09-0.08-0.1-0.09-0.09-0.09-0.1-0.08-0.09-0.07-0.1-0.08-0.18-0.14-0.1-0.06-0.09-0.06-0.1-0.06-0.09-0.05-0.09-0.06-0.1-0.04-0.09-0.05-0.09-0.04-0.1-0.04-0.09-0.04-0.09-0.03-0.1-0.03-0.09-0.03-0.09-0.02-0.1-0.02-0.09-0.02-0.18-0.02-0.1-0.01h-0.09l-0.09-0.01c-0.91 0-1.96 0.54-2.22 0.71-1.27 0.59-2 0.9-2.77 0.9-1.42 0-1.95-0.56-4.14-2.79l0.71-0.69c1 1.08 2.01 1.59 2.98 1.59 0.91 0 1.95-0.51 2.23-0.68 1.25-0.6 1.99-0.91 2.75-0.91 1.44 0 1.96 0.55 4.16 2.78z"/><path d="m538.14 439.89h3.54c0.66 0 1.11 0 1.11 0.76 0 0.49-0.45 0.49-1.03 0.49h-3.31l1.28 5.15c0.03 0.17 0.11 0.35 0.11 0.49 0 0.64-0.49 1.12-1.19 1.12-0.87 0-1.39-0.59-1.64-1.5-0.23-0.87 0.22 0.8-1.33-5.26h-3.54c-0.66 0-1.11 0-1.11-0.77 0-0.48 0.4-0.48 1.04-0.48h3.3l-2.05-8.22c-0.22-0.88-0.53-2.13-0.53-2.58 0-2.06 1.75-3.31 3.74-3.31 3.87 0 6.06 4.87 6.06 5.33 0 0.45-0.45 0.45-0.56 0.45-0.41 0-0.46-0.08-0.72-0.66-0.99-2.2-2.77-4.15-4.67-4.15-0.74 0-1.22 0.45-1.22 1.7 0 0.36 0.14 1.09 0.2 1.44z"/><path d="m554.42 436.62v0.06l-0.01 0.05v0.06l-0.02 0.1-0.02 0.05-0.01 0.05-0.04 0.1-0.02 0.04-0.03 0.05-0.03 0.04-0.02 0.04-0.04 0.04-0.06 0.08-0.04 0.03-0.04 0.04-0.08 0.06-0.05 0.03-0.04 0.02-0.05 0.02-0.05 0.03-0.05 0.01-0.05 0.02-0.06 0.01-0.05 0.02-0.06 0.01h-0.06l-0.06 0.01h-0.06c-0.68 0-1.51-0.67-1.51-1.49 0-0.7 0.54-1.08 1.06-1.08 0.83 0 1.55 0.76 1.55 1.5z"/><path d="m555.59 424.67v0.06l-0.01 0.02v0.02l-0.01 0.02v0.01l-0.01 0.01v0.01l-0.02 0.02v0.01l-0.03 0.03v0.01l-0.01 0.01h-0.01l-0.02 0.02-0.12 0.06-0.03 0.01h-0.02l-0.02 0.01h-0.02l-0.02 0.01h-0.1l-0.02 0.01h-0.05c-0.42 0-0.45-0.1-0.59-0.58-0.44-1.36-1.55-2.78-2.8-2.78-0.58 0-0.75 0.39-0.75 0.93 0 0.53 0.13 0.8 0.33 1.29 0.21 0.48 0.39 0.98 0.52 1.34 0.11 0.22 1.07 2.53 1.42 3.44 0.2 0.5 0.36 0.81 0.36 1.23 0 1.2-1.16 2.2-2.72 2.2-2.62 0-4.02-3.18-4.02-3.86 0-0.35 0.41-0.35 0.53-0.35 0.43 0 0.44 0.12 0.57 0.5 0.55 1.76 1.75 2.85 2.81 2.85 0.49 0 0.75-0.26 0.75-0.93 0-0.1 0-0.42-0.14-0.91-0.19-0.44-1.3-3.11-1.66-3.95-0.17-0.42-0.17-0.47-0.54-1.32-0.13-0.35-0.27-0.7-0.27-1.12 0-1.3 1.22-2.2 2.72-2.2 2.61 0 4 3.25 4 3.87z"/><polyline points="462 417 560.88 417 560.88 419.04 462 419.04" fill-rule="nonzero"/><path d="m518.59 394.9h-1.18c-0.1-0.76-0.46-2.83-0.91-3.17-0.27-0.2-2.95-0.2-3.44-0.2h-6.42c3.66 3.23 4.88 4.2 6.97 5.84 2.58 2.06 4.98 4.22 4.98 7.53 0 4.22-3.68 6.8-8.15 6.8-4.32 0-7.25-3.03-7.25-6.24 0-1.78 1.5-1.95 1.86-1.95 0.83 0 1.84 0.6 1.84 1.85 0 0.62-0.25 1.84-2.06 1.84 1.08 2.47 3.45 3.23 5.09 3.23 3.49 0 5.3-2.7 5.3-5.53 0-3.03-2.16-5.44-3.28-6.69l-8.39-8.29c-0.36-0.31-0.36-0.39-0.36-1.36h14.36z"/></g>
 </g>
 <g transform="matrix(1.468 0 0 1.468 143.07 -42.943)">
  <g transform="matrix(.23286 0 0 -.23286 -40.75 225)" fill-rule="evenodd" stroke="#000" stroke-miterlimit="10.433" stroke-width="0" xml:space="preserve"><path d="m481.16 447.85-0.8 0.75c0-0.05-1.89-2.39-4.07-2.39-1.15 0-2.4 0.75-3.24 1.25-1.34 0.8-2.25 1.14-3.09 1.14-1.89 0-2.85-1.09-5.38-3.89l0.8-0.75c0 0.06 1.89 2.39 4.08 2.39 1.14 0 2.39-0.73 3.23-1.23 1.35-0.8 2.25-1.16 3.1-1.16 1.89 0 2.84 1.11 5.37 3.89z"/><path d="m465.79 426.12h4.68c0.99 0 1.49 0 1.49 1 0 0.55-0.5 0.55-1.39 0.55h-4.39c1.79 7.08 2.04 8.08 2.04 8.37 0 0.85-0.59 1.35-1.43 1.35-0.16 0-1.55-0.05-2-1.8l-1.94-7.92h-4.69c-1 0-1.5 0-1.5-0.94 0-0.61 0.41-0.61 1.41-0.61h4.37c-3.58-14.14-3.78-14.98-3.78-15.89 0-2.69 1.89-4.58 4.58-4.58 5.08 0 7.92 7.27 7.92 7.67 0 0.5-0.39 0.5-0.59 0.5-0.46 0-0.5-0.15-0.75-0.7-2.14-5.17-4.78-6.37-6.47-6.37-1.05 0-1.55 0.65-1.55 2.29 0 1.19 0.09 1.55 0.3 2.39z"/><path d="m484.82 420.54-0.01 0.05v0.06l-0.01 0.05v0.06l-0.02 0.05-0.01 0.06-0.02 0.05-0.04 0.12-0.02 0.05-0.03 0.06-0.03 0.05-0.03 0.06-0.16 0.2-0.05 0.05-0.05 0.04-0.05 0.05-0.06 0.04-0.06 0.03-0.06 0.04-0.06 0.03-0.14 0.06-0.16 0.04-0.16 0.02-0.09 0.01h-0.09c-0.94 0-1.95-0.91-1.95-1.92 0-0.59 0.45-1.33 1.4-1.33 1 0 1.96 0.99 1.96 1.92z"/><path d="m477.71 402.84-0.06-0.17-0.05-0.17-0.03-0.08-0.02-0.09-0.03-0.08-0.06-0.27-0.02-0.1-0.02-0.09-0.01-0.1v-0.05l-0.01-0.05v-0.16l-0.01-0.06c0-1.64 1.4-2.95 3.3-2.95 3.49 0 5.03 4.79 5.03 5.33 0 0.45-0.45 0.45-0.56 0.45-0.48 0-0.53-0.2-0.67-0.59-0.8-2.79-2.33-4.22-3.69-4.22-0.7 0-0.87 0.45-0.87 1.22 0 0.79 0.25 1.46 0.56 2.23 0.34 0.94 0.73 1.87 1.11 2.78 0.31 0.84 1.58 4.02 1.72 4.44 0.09 0.34 0.2 0.76 0.2 1.11 0 1.64-1.39 2.95-3.31 2.95-3.46 0-5.05-4.73-5.05-5.33 0-0.45 0.48-0.45 0.59-0.45 0.49 0 0.52 0.17 0.63 0.56 0.91 3 2.44 4.25 3.72 4.25 0.56 0 0.87-0.28 0.87-1.22 0-0.79-0.2-1.32-1.08-3.48z"/></g>
 </g>
</svg>
